<svg width="24" height="24" viewBox="0 0 24 24" fill="none" xmlns="http://www.w3.org/2000/svg">
<path d="M1.64493 17.6031C1.90916 20.0729 3.8955 22.0593 6.364 22.3344C8.19752 22.5387 10.0801 22.7143 11.9994 22.7143C13.9188 22.7143 15.8014 22.5387 17.6348 22.3344C20.1034 22.0593 22.0897 20.0729 22.3539 17.6031C22.549 15.78 22.7137 13.9083 22.7137 12C22.7137 10.0917 22.549 8.21996 22.3539 6.3968C22.0897 3.92712 20.1034 1.94076 17.6348 1.66561C15.8014 1.46124 13.9188 1.28571 11.9994 1.28571C10.0801 1.28571 8.19752 1.46124 6.364 1.66561C3.8955 1.94076 1.90916 3.92712 1.64493 6.3968C1.44987 8.21996 1.28516 10.0917 1.28516 12C1.28516 13.9083 1.44987 15.78 1.64493 17.6031Z" fill="#C3E2CE" fill-opacity="0.12" stroke="#1ED760" stroke-width="1.71429"/>
<path d="M12.0008 12.7787C12.0008 12.1597 12.5042 11.7801 13.3923 11.1866C14.2161 10.6362 14.6506 9.92213 14.4574 8.95041C14.2641 7.97866 13.4612 7.17576 12.4894 6.98246C10.9641 6.67905 9.49609 7.88376 9.49609 9.439" stroke="#1ED760" stroke-width="1.71429" stroke-linecap="round" stroke-linejoin="round"/>
<path d="M12 17.0642V16.6356" stroke="#1ED760" stroke-width="1.71429" stroke-linecap="round" stroke-linejoin="round"/>
</svg>
