<svg width="29" height="28" viewBox="0 0 29 28" fill="none" xmlns="http://www.w3.org/2000/svg">
<g clip-path="url(#clip0_749_4510)">
<path d="M24.2189 3.25416C23.8551 3.33122 23.5367 3.54955 23.3337 3.86119C23.1308 4.17284 23.0598 4.55231 23.1364 4.91624L24.2615 10.248C23.5037 10.2287 22.7586 10.4459 22.1299 10.8694C21.5012 11.2929 21.0199 11.9017 20.7531 12.6113C20.4862 13.3208 20.447 14.0959 20.6408 14.8288C20.8346 15.5616 21.2519 16.2159 21.8347 16.7008C22.4174 17.1857 23.1367 17.477 23.8926 17.5343C24.6485 17.5916 25.4035 17.4121 26.0527 17.0206C26.7019 16.6292 27.213 16.0453 27.5151 15.35C27.8173 14.6547 27.8953 13.8826 27.7385 13.141L25.881 4.3372C25.8042 3.97318 25.586 3.65457 25.2743 3.45146C24.9626 3.24836 24.583 3.17738 24.2189 3.25416Z" fill="#FFE500"/>
<path d="M24.6159 16.0188C23.794 16.1911 22.9378 16.0752 22.1911 15.6908C21.4445 15.3064 20.8529 14.6767 20.5156 13.9076C20.518 14.4183 20.6275 14.9227 20.837 15.3885C21.0465 15.8542 21.3514 16.2708 21.7319 16.6113C22.1124 16.9519 22.5602 17.2088 23.0462 17.3655C23.5322 17.5223 24.0457 17.5753 24.5535 17.5212C25.0613 17.4671 25.5521 17.3071 25.9942 17.0515C26.4363 16.7959 26.8199 16.4505 27.1201 16.0374C27.4204 15.6243 27.6307 15.1529 27.7374 14.6535C27.8441 14.1541 27.8449 13.6379 27.7396 13.1382L27.4367 11.6922C27.6354 12.6399 27.45 13.6278 26.9211 14.4389C26.3923 15.25 25.5633 15.8182 24.6159 16.0188Z" fill="#F2C100"/>
<path d="M24.2189 3.25416C23.8551 3.33122 23.5367 3.54955 23.3337 3.86119C23.1308 4.17284 23.0598 4.55231 23.1364 4.91624L24.2615 10.248C23.5037 10.2287 22.7586 10.4459 22.1299 10.8694C21.5012 11.2929 21.0199 11.9017 20.7531 12.6113C20.4862 13.3208 20.447 14.0959 20.6408 14.8288C20.8346 15.5616 21.2519 16.2159 21.8347 16.7008C22.4174 17.1857 23.1367 17.477 23.8926 17.5343C24.6485 17.5916 25.4035 17.4121 26.0527 17.0206C26.7019 16.6292 27.213 16.0453 27.5151 15.35C27.8173 14.6547 27.8953 13.8826 27.7385 13.141L25.881 4.3372C25.8042 3.97318 25.586 3.65457 25.2743 3.45146C24.9626 3.24836 24.583 3.17738 24.2189 3.25416V3.25416Z" stroke="#45413C" stroke-width="0.6" stroke-linecap="round" stroke-linejoin="round"/>
<path d="M18.4882 13.2334C18.3642 13.1215 18.2181 13.0371 18.0593 12.9855C17.9004 12.9338 17.7326 12.9162 17.5665 12.9338L8.42897 13.888C8.13598 13.9186 7.86471 14.0566 7.6675 14.2754C7.47029 14.4943 7.36112 14.7784 7.36105 15.073V21.3058C6.73433 21.1567 6.07676 21.2066 5.47968 21.4484C4.8826 21.6902 4.37567 22.112 4.02931 22.6552C3.68294 23.1983 3.51435 23.8359 3.54694 24.4793C3.57954 25.1226 3.81171 25.7399 4.21119 26.2452C4.61068 26.7506 5.15765 27.119 5.77611 27.2992C6.39457 27.4795 7.05382 27.4626 7.66226 27.251C8.2707 27.0394 8.79813 26.6435 9.17127 26.1184C9.54441 25.5933 9.74473 24.965 9.74441 24.3208V17.7548L16.4991 17.0486V20.3526C15.8724 20.2035 15.2148 20.2532 14.6177 20.495C14.0205 20.7367 13.5135 21.1584 13.1671 21.7015C12.8206 22.2447 12.6519 22.8822 12.6844 23.5256C12.717 24.169 12.9491 24.7863 13.3485 25.2917C13.7479 25.7971 14.2949 26.1656 14.9133 26.3459C15.5318 26.5262 16.1911 26.5094 16.7995 26.2978C17.408 26.0863 17.9355 25.6904 18.3087 25.1653C18.6819 24.6402 18.8822 24.0119 18.8819 23.3677V14.1187C18.882 13.9518 18.847 13.7867 18.7791 13.6342C18.7113 13.4817 18.6122 13.3451 18.4882 13.2334Z" fill="#FF6196"/>
<path d="M6.64146 26.152C5.9297 26.1511 5.23982 25.906 4.68715 25.4575C4.13447 25.009 3.75252 24.3843 3.60514 23.688C3.51592 24.1133 3.51706 24.5527 3.60849 24.9775C3.69991 25.4024 3.87957 25.8033 4.13584 26.1543C4.39211 26.5053 4.71926 26.7985 5.09609 27.015C5.47293 27.2315 5.89104 27.3664 6.32334 27.4109C6.75564 27.4555 7.19248 27.4087 7.60555 27.2737C8.01862 27.1386 8.39872 26.9183 8.7212 26.627C9.04367 26.3356 9.30135 25.9798 9.47752 25.5825C9.65369 25.1853 9.74443 24.7554 9.74386 24.3208V23.0513C9.74238 23.8735 9.41499 24.6616 8.83345 25.2428C8.25191 25.824 7.46366 26.151 6.64146 26.152ZM16.1374 15.8172L10.0367 16.455C9.95634 16.4635 9.88192 16.5014 9.82783 16.5615C9.77375 16.6216 9.74383 16.6996 9.74386 16.7804V17.7548L16.4986 17.0486V16.1426C16.4986 16.0967 16.489 16.0514 16.4703 16.0095C16.4517 15.9676 16.4245 15.9301 16.3904 15.8995C16.3564 15.8688 16.3162 15.8456 16.2726 15.8314C16.2291 15.8173 16.183 15.8124 16.1374 15.8172ZM15.7795 25.2C15.0672 25.199 14.3768 24.9533 13.8239 24.504C13.2711 24.0547 12.8894 23.4292 12.7427 22.7321C12.6535 23.1573 12.6546 23.5966 12.7459 24.0213C12.8373 24.4461 13.0169 24.847 13.273 25.1979C13.5292 25.5489 13.8562 25.8421 14.2329 26.0587C14.6096 26.2752 15.0276 26.4102 15.4597 26.4549C15.8919 26.4996 16.3287 26.453 16.7417 26.3182C17.1548 26.1834 17.5349 25.9633 17.8575 25.6722C18.18 25.3811 18.4379 25.0255 18.6142 24.6284C18.7906 24.2313 18.8816 23.8016 18.8814 23.3671V22.0959C18.8809 22.9186 18.5541 23.7076 17.9725 24.2896C17.391 24.8715 16.6023 25.199 15.7795 25.2Z" fill="#E0366F"/>
<path d="M18.4882 13.2334C18.3642 13.1215 18.2181 13.0371 18.0593 12.9855C17.9004 12.9338 17.7326 12.9162 17.5665 12.9338L8.42897 13.888C8.13598 13.9186 7.86471 14.0566 7.6675 14.2754C7.47029 14.4943 7.36112 14.7784 7.36105 15.073V21.3058C6.73433 21.1567 6.07676 21.2066 5.47968 21.4484C4.8826 21.6902 4.37567 22.112 4.02931 22.6552C3.68294 23.1983 3.51435 23.8359 3.54694 24.4793C3.57954 25.1226 3.81171 25.7399 4.21119 26.2452C4.61068 26.7506 5.15765 27.119 5.77611 27.2992C6.39457 27.4795 7.05382 27.4626 7.66226 27.251C8.2707 27.0394 8.79813 26.6435 9.17127 26.1184C9.54441 25.5933 9.74473 24.965 9.74441 24.3208V17.7548L16.4991 17.0486V20.3526C15.8724 20.2035 15.2148 20.2532 14.6177 20.495C14.0205 20.7367 13.5135 21.1584 13.1671 21.7015C12.8206 22.2447 12.6519 22.8822 12.6844 23.5256C12.717 24.169 12.9491 24.7863 13.3485 25.2917C13.7479 25.7971 14.2949 26.1656 14.9133 26.3459C15.5318 26.5262 16.1911 26.5094 16.7995 26.2978C17.408 26.0863 17.9355 25.6904 18.3087 25.1653C18.6819 24.6402 18.8822 24.0119 18.8819 23.3677V14.1187C18.882 13.9518 18.847 13.7867 18.7791 13.6342C18.7113 13.4817 18.6122 13.3451 18.4882 13.2334V13.2334Z" stroke="#45413C" stroke-width="0.6" stroke-linecap="round" stroke-linejoin="round"/>
<path d="M8.00466 0.585199C7.82642 0.565762 7.6461 0.581637 7.47401 0.631914C7.30191 0.682192 7.14141 0.765888 7.00167 0.87822C6.86193 0.990552 6.74569 1.12932 6.6596 1.28659C6.57352 1.44386 6.51926 1.61655 6.49994 1.7948L5.92874 7.06496C5.45658 6.89783 4.95441 6.83245 4.4552 6.8731C3.95599 6.91375 3.47102 7.05951 3.03212 7.30083C2.59322 7.54214 2.21031 7.87354 1.90854 8.27329C1.60676 8.67303 1.39293 9.13208 1.28109 9.6203C1.16925 10.1085 1.16193 10.6149 1.2596 11.1061C1.35726 11.5974 1.55772 12.0624 1.84781 12.4707C2.13789 12.879 2.51105 13.2214 2.94278 13.4753C3.37452 13.7292 3.85507 13.8889 4.3529 13.944C6.30058 14.1557 7.59194 12.301 7.80362 10.3533L8.57138 3.29056C9.07376 3.56575 9.47509 3.99423 9.71686 4.51352C9.95862 5.03282 10.0282 5.61576 9.91538 6.17736C9.88135 6.53468 9.9894 6.89103 10.2161 7.16928C10.4429 7.44752 10.7701 7.62528 11.1269 7.66408C11.4838 7.70288 11.8415 7.59959 12.1228 7.37658C12.404 7.15356 12.5861 6.82876 12.6297 6.47248C13.0839 2.28424 10.3007 0.834399 8.00466 0.585199Z" fill="#4CF4FC"/>
<path d="M8.00338 8.52824L7.9821 8.52096C7.69426 10.3858 6.45106 12.161 4.55658 11.9532C3.79756 11.8703 3.08534 11.5454 2.52516 11.0266C1.96498 10.5077 1.58655 9.82245 1.44578 9.072C1.2365 9.58117 1.14871 10.1321 1.18937 10.6811C1.23002 11.2301 1.398 11.7621 1.67999 12.2349C1.96199 12.7077 2.35024 13.1083 2.81397 13.405C3.2777 13.7016 3.80416 13.8862 4.35162 13.944C6.2993 14.1557 7.59066 12.301 7.80234 10.3533L8.00338 8.52824ZM8.5701 3.29056C9.07248 3.56575 9.47382 3.99423 9.71558 4.51352C9.95735 5.03282 10.0269 5.61576 9.9141 6.17736C9.87905 6.50137 9.96106 6.82723 10.1453 7.09606C10.3295 7.36488 10.6039 7.55893 10.9187 7.64313C11.2335 7.72733 11.5681 7.69614 11.862 7.55518C12.1558 7.41423 12.3895 7.17281 12.5209 6.87456L12.4419 6.88576C12.0966 6.9457 11.7412 6.87547 11.4446 6.68864C11.2152 6.55183 11.0312 6.35052 10.9155 6.10982C10.7998 5.86913 10.7575 5.5997 10.7939 5.33512C10.926 3.97992 9.81554 2.9792 9.00746 2.44328C8.82042 2.31952 8.67146 2.4528 8.6457 2.67568L8.57122 3.29168" fill="#00DFEB"/>
<path d="M8.00466 0.585199C7.82642 0.565762 7.6461 0.581637 7.47401 0.631914C7.30191 0.682192 7.14141 0.765888 7.00167 0.87822C6.86193 0.990552 6.74569 1.12932 6.6596 1.28659C6.57352 1.44386 6.51926 1.61655 6.49994 1.7948L5.92874 7.06496C5.45658 6.89783 4.95441 6.83245 4.4552 6.8731C3.95599 6.91375 3.47102 7.05951 3.03212 7.30083C2.59322 7.54214 2.21031 7.87354 1.90854 8.27329C1.60676 8.67303 1.39293 9.13208 1.28109 9.6203C1.16925 10.1085 1.16193 10.6149 1.2596 11.1061C1.35726 11.5974 1.55772 12.0624 1.84781 12.4707C2.13789 12.879 2.51105 13.2214 2.94278 13.4753C3.37452 13.7292 3.85507 13.8889 4.3529 13.944C6.30058 14.1557 7.59194 12.301 7.80362 10.3533L8.57138 3.29056C9.07376 3.56575 9.47509 3.99423 9.71686 4.51352C9.95862 5.03282 10.0282 5.61576 9.91538 6.17736C9.88135 6.53468 9.9894 6.89103 10.2161 7.16928C10.4429 7.44752 10.7701 7.62528 11.1269 7.66408C11.4838 7.70288 11.8415 7.59959 12.1228 7.37658C12.404 7.15356 12.5861 6.82876 12.6297 6.47248C13.0839 2.28424 10.3007 0.834399 8.00466 0.585199Z" stroke="#45413C" stroke-width="0.6" stroke-linecap="round" stroke-linejoin="round"/>
</g>
<defs>
<clipPath id="clip0_749_4510">
<rect width="28" height="28" fill="white" transform="translate(0.5)"/>
</clipPath>
</defs>
</svg>
