<svg width="33" height="32" viewBox="0 0 33 32" fill="none" xmlns="http://www.w3.org/2000/svg">
<path d="M28.2933 13.207L23.0003 18.5L16.9933 7.41C16.8383 7.465 16.6743 7.5 16.5003 7.5C16.3263 7.5 16.1623 7.465 16.0073 7.41L10.0003 18.5L4.70728 13.207C4.57604 13.3297 4.41393 13.4144 4.23828 13.452L7.00028 24.5H26.0003L28.7623 13.452C28.5866 13.4144 28.4245 13.3297 28.2933 13.207Z" fill="#FECB5B"/>
<path d="M6 27.5L7 24.5H26L27 27.5H6Z" fill="#FCD770"/>
<path d="M23.5 10C24.0523 10 24.5 9.55228 24.5 9C24.5 8.44772 24.0523 8 23.5 8C22.9477 8 22.5 8.44772 22.5 9C22.5 9.55228 22.9477 10 23.5 10Z" fill="#F8B545"/>
<path d="M29 13.5C29.5523 13.5 30 13.0523 30 12.5C30 11.9477 29.5523 11.5 29 11.5C28.4477 11.5 28 11.9477 28 12.5C28 13.0523 28.4477 13.5 29 13.5Z" fill="#FECB5B"/>
<path d="M16.5 21.5C17.6046 21.5 18.5 20.6046 18.5 19.5C18.5 18.3954 17.6046 17.5 16.5 17.5C15.3954 17.5 14.5 18.3954 14.5 19.5C14.5 20.6046 15.3954 21.5 16.5 21.5Z" fill="#EF4A4C"/>
<path d="M9.5 10C10.0523 10 10.5 9.55228 10.5 9C10.5 8.44772 10.0523 8 9.5 8C8.94772 8 8.5 8.44772 8.5 9C8.5 9.55228 8.94772 10 9.5 10Z" fill="#F8B545"/>
<path d="M9.77713 9.944C9.68813 9.97 9.59812 10 9.50012 10C9.42613 10 9.36012 9.973 9.29012 9.958L6.82812 15.329L10.0001 18.5L12.3791 14.107L9.77713 9.944ZM23.7101 9.958C23.6401 9.973 23.5741 10 23.5001 10C23.4021 10 23.3121 9.97 23.2231 9.944L20.6211 14.107L23.0001 18.5L26.1711 15.329L23.7101 9.958Z" fill="#F8B545"/>
<path d="M4 13.5C4.55228 13.5 5 13.0523 5 12.5C5 11.9477 4.55228 11.5 4 11.5C3.44772 11.5 3 11.9477 3 12.5C3 13.0523 3.44772 13.5 4 13.5Z" fill="#FECB5B"/>
<path d="M16.5 7.5C17.3284 7.5 18 6.82843 18 6C18 5.17157 17.3284 4.5 16.5 4.5C15.6716 4.5 15 5.17157 15 6C15 6.82843 15.6716 7.5 16.5 7.5Z" fill="#FECB5B"/>
<path d="M26.9999 28H5.99991C5.9207 28.0002 5.84259 27.9814 5.77213 27.9452C5.70167 27.909 5.6409 27.8565 5.59491 27.792C5.54831 27.728 5.51773 27.6537 5.50573 27.5754C5.49373 27.4971 5.50064 27.4171 5.52591 27.342L6.52591 24.342C6.55906 24.2425 6.62266 24.1559 6.70773 24.0945C6.7928 24.0331 6.89501 24.0001 6.99991 24H25.9999C26.2149 24 26.4059 24.138 26.4749 24.342L27.4749 27.342C27.5002 27.4172 27.5072 27.4974 27.4953 27.5758C27.4834 27.6543 27.453 27.7287 27.4065 27.7931C27.3601 27.8574 27.299 27.9097 27.2282 27.9457C27.1575 27.9817 27.0793 28.0003 26.9999 28ZM6.69291 27H26.3059L25.6389 25H7.35991L6.69291 27ZM23.4999 10.5C22.6729 10.5 21.9999 9.827 21.9999 9C21.9999 8.173 22.6729 7.5 23.4999 7.5C24.3269 7.5 24.9999 8.173 24.9999 9C24.9999 9.827 24.3269 10.5 23.4999 10.5ZM23.4999 8.5C23.2249 8.5 22.9999 8.725 22.9999 9C22.9999 9.275 23.2249 9.5 23.4999 9.5C23.7749 9.5 23.9999 9.275 23.9999 9C23.9999 8.725 23.7749 8.5 23.4999 8.5ZM28.9999 14C28.1729 14 27.4999 13.327 27.4999 12.5C27.4999 11.673 28.1729 11 28.9999 11C29.8269 11 30.4999 11.673 30.4999 12.5C30.4999 13.327 29.8269 14 28.9999 14ZM28.9999 12C28.7249 12 28.4999 12.225 28.4999 12.5C28.4999 12.775 28.7249 13 28.9999 13C29.2749 13 29.4999 12.775 29.4999 12.5C29.4999 12.225 29.2749 12 28.9999 12ZM16.4999 22C15.1209 22 13.9999 20.879 13.9999 19.5C13.9999 18.121 15.1209 17 16.4999 17C17.8789 17 18.9999 18.121 18.9999 19.5C18.9999 20.879 17.8789 22 16.4999 22ZM16.4999 18C15.6729 18 14.9999 18.673 14.9999 19.5C14.9999 20.327 15.6729 21 16.4999 21C17.3269 21 17.9999 20.327 17.9999 19.5C17.9999 18.673 17.3269 18 16.4999 18ZM9.49991 10.5C8.67291 10.5 7.99991 9.827 7.99991 9C7.99991 8.173 8.67291 7.5 9.49991 7.5C10.3269 7.5 10.9999 8.173 10.9999 9C10.9999 9.827 10.3269 10.5 9.49991 10.5ZM9.49991 8.5C9.22491 8.5 8.99991 8.725 8.99991 9C8.99991 9.275 9.22491 9.5 9.49991 9.5C9.77491 9.5 9.99991 9.275 9.99991 9C9.99991 8.725 9.77491 8.5 9.49991 8.5Z" fill="#004463"/>
<path d="M10 19C9.86737 18.9999 9.74014 18.9474 9.646 18.854L6.474 15.682C6.40194 15.6098 6.35365 15.5172 6.3356 15.4168C6.31755 15.3164 6.3306 15.2128 6.373 15.12L8.835 9.75C8.88151 9.64636 8.96224 9.56187 9.06366 9.51071C9.16508 9.45954 9.28101 9.44482 9.392 9.469L9.432 9.993L9.526 9.502C9.55255 9.48854 9.58081 9.47879 9.61 9.473C9.826 9.408 10.083 9.489 10.201 9.68L12.804 13.843C12.8511 13.9179 12.8774 14.0039 12.8802 14.0923C12.883 14.1807 12.8622 14.2683 12.82 14.346L10.44 18.739C10.4029 18.8073 10.3505 18.8661 10.2868 18.9107C10.2231 18.9553 10.1499 18.9845 10.073 18.996C10.0487 18.9983 10.0244 18.9996 10 19ZM7.428 15.221L9.88 17.673L11.802 14.125L9.568 10.552L7.428 15.221ZM9.777 9.944L9.918 10.423L9.777 9.944ZM23 19C22.91 18.9999 22.8217 18.9755 22.7445 18.9293C22.6672 18.8832 22.6038 18.8171 22.561 18.738L20.181 14.345C20.1388 14.2673 20.118 14.1797 20.1208 14.0913C20.1236 14.0029 20.1499 13.9169 20.197 13.842L22.8 9.679C22.8575 9.58636 22.9438 9.51516 23.0457 9.47632C23.1476 9.43748 23.2594 9.43315 23.364 9.464C23.429 9.484 23.482 9.5 23.5 9.5L23.608 9.469C23.7189 9.44487 23.8346 9.45964 23.9359 9.51081C24.0371 9.56198 24.1177 9.64644 24.164 9.75L26.626 15.12C26.6687 15.2128 26.6819 15.3164 26.6638 15.4169C26.6458 15.5174 26.5973 15.6099 26.525 15.682L23.353 18.854C23.3066 18.9003 23.2516 18.9371 23.191 18.9621C23.1305 18.9872 23.0655 19 23 19ZM21.198 14.125L23.12 17.673L25.572 15.221L23.432 10.552L21.198 14.125ZM23.71 9.958L23.812 10.447L23.71 9.958ZM4 14C3.173 14 2.5 13.327 2.5 12.5C2.5 11.673 3.173 11 4 11C4.827 11 5.5 11.673 5.5 12.5C5.5 13.327 4.827 14 4 14ZM4 12C3.725 12 3.5 12.225 3.5 12.5C3.5 12.775 3.725 13 4 13C4.275 13 4.5 12.775 4.5 12.5C4.5 12.225 4.275 12 4 12ZM16.5 8C15.397 8 14.5 7.103 14.5 6C14.5 4.897 15.397 4 16.5 4C17.603 4 18.5 4.897 18.5 6C18.5 7.103 17.603 8 16.5 8ZM16.5 5C16.2348 5 15.9804 5.10536 15.7929 5.29289C15.6054 5.48043 15.5 5.73478 15.5 6C15.5 6.26522 15.6054 6.51957 15.7929 6.70711C15.9804 6.89464 16.2348 7 16.5 7C16.7652 7 17.0196 6.89464 17.2071 6.70711C17.3946 6.51957 17.5 6.26522 17.5 6C17.5 5.73478 17.3946 5.48043 17.2071 5.29289C17.0196 5.10536 16.7652 5 16.5 5Z" fill="#004463"/>
<path d="M25.9999 25H6.99995C6.88841 25 6.7801 24.9626 6.69221 24.894C6.60433 24.8253 6.54194 24.7292 6.51495 24.621L3.75295 13.573C3.72116 13.4447 3.74151 13.3089 3.80954 13.1956C3.87757 13.0822 3.98774 13.0004 4.11595 12.968C4.20344 12.951 4.28507 12.9118 4.35295 12.854C4.44671 12.7603 4.57386 12.7076 4.70645 12.7076C4.83903 12.7076 4.96618 12.7603 5.05995 12.854L9.87894 17.673L15.5669 7.172C15.6237 7.06762 15.7157 6.98685 15.8266 6.94416C15.9374 6.90146 16.0599 6.89964 16.1719 6.939C16.3822 7.02101 16.6157 7.02101 16.8259 6.939C16.938 6.89964 17.0605 6.90146 17.1713 6.94416C17.2822 6.98685 17.3742 7.06762 17.4309 7.172L23.1189 17.673L27.9379 12.854C28.0317 12.7603 28.1589 12.7076 28.2914 12.7076C28.424 12.7076 28.5512 12.7603 28.6449 12.854C28.7128 12.9118 28.7945 12.951 28.8819 12.968C29.1499 13.035 29.3119 13.306 29.2449 13.573L26.4829 24.621C26.4567 24.7292 26.3947 24.8255 26.3071 24.8942C26.2195 24.963 26.1113 25.0002 25.9999 25ZM7.39094 24H25.6099L28.0779 14.13L23.3539 18.854C23.2989 18.909 23.2318 18.9504 23.158 18.975C23.0842 18.9995 23.0056 19.0065 22.9286 18.9953C22.8516 18.9841 22.7783 18.9551 22.7145 18.9106C22.6506 18.8662 22.5981 18.8074 22.5609 18.739L16.7349 7.984C16.5786 8.00499 16.4202 8.00499 16.2639 7.984L10.4389 18.738C10.4019 18.8063 10.3494 18.8651 10.2857 18.9097C10.222 18.9543 10.1488 18.9835 10.0719 18.995C9.99479 19.0059 9.91615 18.9988 9.84222 18.9742C9.76829 18.9495 9.7011 18.9081 9.64595 18.853L4.92295 14.13L7.39094 24Z" fill="#004463"/>
</svg>
