<svg width="28" height="28" viewBox="0 0 28 28" fill="none" xmlns="http://www.w3.org/2000/svg">
<g clip-path="url(#clip0_743_4162)">
<path d="M2.00287 4.90087L1.3125 1.3125L4.90087 2.00287L20.6014 16.2544L16.2544 20.6014L2.00287 4.90087Z" fill="#C4E6FF"/>
<path d="M24.4045 22.5942L22.5932 24.4055L18.9707 20.783L20.782 18.9717L24.4045 22.5942Z" fill="#1F2B54"/>
<path d="M17.3406 22.4128L22.4122 17.3411C22.8123 16.941 22.8123 16.2922 22.4122 15.8921C22.0121 15.492 21.3633 15.492 20.9632 15.8921L15.8915 20.9637C15.4914 21.3639 15.4914 22.0126 15.8915 22.4128C16.2917 22.8129 16.9404 22.8129 17.3406 22.4128Z" fill="#2C3A64"/>
<path d="M23.5005 26.3979L26.3985 23.4998C26.7987 23.0997 26.7987 22.451 26.3985 22.0508C25.9984 21.6507 25.3496 21.6507 24.9495 22.0508L22.0514 24.9489C21.6513 25.349 21.6513 25.9978 22.0514 26.3979C22.4516 26.7981 23.1003 26.7981 23.5005 26.3979Z" fill="#2C3A64"/>
<path d="M23.1092 2.00287L26.6976 1.3125L26.0072 4.90087L11.7556 20.6014L7.4082 16.2544L23.1092 2.00287Z" fill="#E2F3FF"/>
<path d="M5.41672 24.4046L3.60547 22.5934L7.22797 18.9709L9.03922 20.7821L5.41672 24.4046Z" fill="#1F2B54"/>
<path d="M5.59838 17.3414L10.67 22.4131C11.0702 22.8132 11.7189 22.8132 12.1191 22.4131C12.5192 22.0129 12.5192 21.3642 12.119 20.964L7.04741 15.8924C6.64727 15.4923 5.99852 15.4923 5.59838 15.8924C5.19824 16.2926 5.19824 16.9413 5.59838 17.3414Z" fill="#2C3A64"/>
<path d="M1.61373 23.4999L4.51181 26.3979C4.91195 26.7981 5.56071 26.7981 5.96085 26.3979C6.36099 25.9978 6.36099 25.349 5.96085 24.9489L3.06277 22.0508C2.66263 21.6507 2.01387 21.6507 1.61373 22.0508C1.21359 22.451 1.21359 23.0997 1.61373 23.4999Z" fill="#2C3A64"/>
<path d="M24.6389 21.7438L24.4049 21.9778L21.4006 18.9735L22.7218 17.6527C22.8597 17.5138 22.9684 17.3486 23.0413 17.1669C23.1142 16.9852 23.15 16.7908 23.1464 16.595C23.1428 16.3993 23.1 16.2063 23.0205 16.0274C22.941 15.8485 22.8264 15.6873 22.6835 15.5535C22.5406 15.4197 22.3724 15.3159 22.1886 15.2483C22.0049 15.1807 21.8095 15.1506 21.614 15.1599C21.4184 15.1692 21.2267 15.2176 21.0502 15.3022C20.8737 15.3869 20.716 15.5062 20.5864 15.6529L18.5328 13.7883L26.3308 5.19488C26.3848 5.13549 26.4214 5.06238 26.4366 4.98357L27.127 1.39607C27.1398 1.32599 27.1353 1.25386 27.1141 1.18587C27.0929 1.11787 27.0555 1.05604 27.0051 1.00567C26.9547 0.955307 26.8929 0.917903 26.8249 0.896668C26.7569 0.875434 26.6848 0.871002 26.6147 0.883754L23.0263 1.575C22.9475 1.59024 22.8744 1.62687 22.815 1.68088L14.0046 9.67619L5.19425 1.67913C5.13486 1.62512 5.06176 1.58849 4.98294 1.57325L1.39544 0.882879C1.32528 0.869857 1.253 0.87409 1.18484 0.895213C1.11668 0.916336 1.05468 0.953717 1.00418 1.00413C0.953673 1.05455 0.916187 1.11649 0.894948 1.18461C0.873708 1.25274 0.869352 1.32501 0.882254 1.39519L1.57263 4.98269C1.58787 5.06151 1.62449 5.13461 1.6785 5.194L9.47694 13.7861L7.42288 15.6507C7.29328 15.504 7.13556 15.3847 6.95905 15.3001C6.78255 15.2154 6.59085 15.167 6.3953 15.1577C6.19975 15.1485 6.00434 15.1785 5.82062 15.2461C5.6369 15.3137 5.46861 15.4175 5.32572 15.5513C5.18283 15.6852 5.06824 15.8463 4.98874 16.0252C4.90923 16.2041 4.86643 16.3971 4.86286 16.5928C4.85929 16.7886 4.89503 16.983 4.96796 17.1647C5.04089 17.3464 5.14953 17.5116 5.28744 17.6505L6.60825 18.9713L3.60438 21.9756L3.37032 21.7438C3.09186 21.4778 2.72159 21.3293 2.3365 21.3293C1.95142 21.3293 1.58115 21.4778 1.30269 21.7438C1.02896 22.0182 0.875234 22.39 0.875234 22.7776C0.875234 23.1652 1.02896 23.537 1.30269 23.8114L4.19938 26.7072C4.47356 26.9814 4.84546 27.1355 5.23326 27.1356C5.62105 27.1356 5.99298 26.9816 6.26722 26.7074C6.54146 26.4332 6.69556 26.0613 6.6956 25.6735C6.69564 25.2857 6.54163 24.9138 6.26744 24.6396L6.03294 24.4055L9.03725 21.4012L10.3581 22.7224C10.497 22.8604 10.6622 22.969 10.8439 23.0419C11.0255 23.1149 11.22 23.1506 11.4157 23.147C11.6115 23.1435 11.8045 23.1007 11.9834 23.0211C12.1623 22.9416 12.3234 22.8271 12.4572 22.6842C12.591 22.5413 12.6948 22.373 12.7624 22.1893C12.8301 22.0055 12.8601 21.8101 12.8509 21.6146C12.8416 21.419 12.7932 21.2273 12.7085 21.0508C12.6238 20.8743 12.5046 20.7166 12.3579 20.587L14.0033 18.7744L15.6488 20.587C15.502 20.7166 15.3828 20.8743 15.2981 21.0508C15.2134 21.2273 15.165 21.419 15.1558 21.6146C15.1465 21.8101 15.1766 22.0055 15.2442 22.1893C15.3118 22.373 15.4156 22.5413 15.5494 22.6842C15.6832 22.8271 15.8443 22.9416 16.0232 23.0211C16.2021 23.1007 16.3952 23.1435 16.5909 23.147C16.7866 23.1506 16.9811 23.1149 17.1628 23.0419C17.3444 22.969 17.5096 22.8604 17.6486 22.7224L18.9694 21.4012L21.9737 24.4055L21.7396 24.6396C21.4705 24.9148 21.3208 25.285 21.323 25.67C21.3252 26.0549 21.4791 26.4234 21.7512 26.6956C22.0234 26.9678 22.392 27.1216 22.7769 27.1238C23.1618 27.126 23.532 26.9763 23.8073 26.7072L26.7053 23.8092C26.979 23.5348 27.1327 23.163 27.1327 22.7754C27.1327 22.3878 26.979 22.016 26.7053 21.7416C26.4266 21.4763 26.0564 21.3285 25.6717 21.3289C25.2869 21.3293 24.9171 21.4779 24.6389 21.7438ZM19.9669 16.2698L18.4273 17.8093L16.5684 15.9504L17.9443 14.434L19.9669 16.2698ZM2.40869 4.69788L1.86357 1.86419L4.69725 2.40932L13.3541 10.2668L10.1244 13.1981L2.40869 4.69788ZM5.65013 26.0881C5.53981 26.1982 5.39034 26.26 5.2345 26.26C5.07867 26.26 4.92919 26.1982 4.81888 26.0881L1.92132 23.1906C1.81109 23.0803 1.74916 22.9308 1.74916 22.7749C1.74916 22.6191 1.81109 22.4695 1.92132 22.3593C2.03155 22.2491 2.18105 22.1872 2.33694 22.1872C2.49283 22.1872 2.64234 22.2491 2.75257 22.3593L5.651 25.2573C5.76083 25.3677 5.8224 25.5172 5.82224 25.6729C5.82207 25.8286 5.76018 25.9779 5.65013 26.0881ZM5.41563 23.7869L4.223 22.5943L7.22732 19.5899L8.41994 20.7813L5.41563 23.7869ZM11.8084 22.1034C11.7538 22.158 11.689 22.2013 11.6177 22.2309C11.5464 22.2604 11.47 22.2756 11.3928 22.2756C11.3156 22.2756 11.2391 22.2604 11.1678 22.2309C11.0965 22.2013 11.0317 22.158 10.9771 22.1034L5.90563 17.0319C5.7954 16.9216 5.73347 16.7721 5.73347 16.6163C5.73347 16.4604 5.7954 16.3109 5.90563 16.2006C6.01586 16.0904 6.16536 16.0285 6.32125 16.0285C6.47714 16.0285 6.62665 16.0904 6.73688 16.2006L11.8084 21.2734C11.9178 21.3838 11.9793 21.533 11.9793 21.6884C11.9793 21.8439 11.9178 21.993 11.8084 22.1034ZM11.7401 19.9679L10.2001 18.4275L12.9966 15.6214C13.0762 15.5388 13.1202 15.4282 13.119 15.3135C13.1179 15.1987 13.0717 15.0891 12.9904 15.0081C12.9092 14.9271 12.7994 14.8812 12.6847 14.8804C12.57 14.8796 12.4595 14.9238 12.3771 15.0036L9.58063 17.8089L8.04194 16.2698L23.3107 2.40932L26.1444 1.86419L25.5993 4.69788L11.7401 19.9679ZM14.5953 18.1234L15.9795 16.5988L17.8087 18.4279L16.2691 19.9675L14.5953 18.1234ZM17.0313 22.1047C16.921 22.2149 16.7715 22.2769 16.6156 22.2769C16.4597 22.2769 16.3102 22.2149 16.2 22.1047C16.0898 21.9945 16.0278 21.845 16.0278 21.6891C16.0278 21.5332 16.0898 21.3837 16.2 21.2734L21.2728 16.2015C21.3274 16.1469 21.3922 16.1036 21.4635 16.0741C21.5348 16.0446 21.6113 16.0293 21.6884 16.0293C21.7656 16.0293 21.8421 16.0446 21.9134 16.0741C21.9847 16.1036 22.0495 16.1469 22.1041 16.2015C22.1586 16.2561 22.2019 16.3209 22.2315 16.3922C22.261 16.4635 22.2762 16.5399 22.2762 16.6171C22.2762 16.6943 22.261 16.7708 22.2315 16.8421C22.2019 16.9134 22.1586 16.9782 22.1041 17.0328L17.0313 22.1047ZM19.5893 20.7813L20.7806 19.5899L23.7849 22.5943L22.5936 23.7869L19.5893 20.7813ZM26.0879 23.1875L23.1899 26.0855C23.0797 26.1957 22.9302 26.2577 22.7743 26.2577C22.6184 26.2577 22.4689 26.1957 22.3587 26.0855C22.2485 25.9753 22.1865 25.8258 22.1865 25.6699C22.1865 25.514 22.2485 25.3645 22.3587 25.2543C22.3587 25.2543 24.5401 23.0882 25.2567 22.3563C25.3113 22.3017 25.3761 22.2584 25.4474 22.2288C25.5187 22.1993 25.5951 22.1841 25.6723 22.1841C25.7495 22.1841 25.8259 22.1993 25.8973 22.2288C25.9686 22.2584 26.0334 22.3017 26.0879 22.3563C26.1425 22.4108 26.1858 22.4756 26.2154 22.5469C26.2449 22.6183 26.2601 22.6947 26.2601 22.7719C26.2601 22.8491 26.2449 22.9255 26.2154 22.9968C26.1858 23.0681 26.1425 23.1329 26.0879 23.1875Z" fill="#1E120B"/>
<path d="M11.4837 1.08019C11.3833 1.13821 11.3099 1.23376 11.2799 1.34584C11.2499 1.45792 11.2656 1.57733 11.3236 1.67781L12.4174 3.57219C12.4459 3.62235 12.484 3.66637 12.5296 3.70172C12.5752 3.73707 12.6274 3.76305 12.6831 3.77817C12.7387 3.79329 12.7969 3.79724 12.8541 3.7898C12.9113 3.78237 12.9665 3.76368 13.0164 3.73484C13.0664 3.70599 13.1102 3.66754 13.1452 3.6217C13.1803 3.57587 13.2059 3.52356 13.2207 3.46778C13.2354 3.412 13.239 3.35385 13.2312 3.29668C13.2233 3.23952 13.2043 3.18446 13.1751 3.13469L12.0814 1.24031C12.0233 1.13983 11.9278 1.06651 11.8157 1.03648C11.7036 1.00645 11.5842 1.02218 11.4837 1.08019ZM15.9174 1.24031L14.8236 3.13469C14.7944 3.18446 14.7754 3.23952 14.7676 3.29668C14.7598 3.35385 14.7633 3.412 14.7781 3.46778C14.7928 3.52356 14.8185 3.57587 14.8535 3.6217C14.8885 3.66754 14.9323 3.70599 14.9823 3.73484C15.0323 3.76368 15.0874 3.78237 15.1446 3.7898C15.2019 3.79724 15.26 3.79329 15.3157 3.77817C15.3713 3.76305 15.4235 3.73707 15.4691 3.70172C15.5147 3.66637 15.5528 3.62235 15.5814 3.57219L16.6751 1.67781C16.7322 1.57738 16.7473 1.45844 16.717 1.34695C16.6867 1.23545 16.6136 1.14046 16.5135 1.08269C16.4135 1.02493 16.2947 1.00908 16.183 1.03861C16.0713 1.06814 15.9758 1.14065 15.9174 1.24031ZM26.5403 9.793L24.6459 10.8868C24.5958 10.9153 24.5517 10.9534 24.5164 10.999C24.481 11.0446 24.4551 11.0968 24.4399 11.1524C24.4248 11.2081 24.4209 11.2663 24.4283 11.3235C24.4357 11.3807 24.4544 11.4359 24.4833 11.4858C24.5121 11.5358 24.5506 11.5796 24.5964 11.6146C24.6422 11.6497 24.6946 11.6753 24.7503 11.69C24.8061 11.7048 24.8643 11.7084 24.9214 11.7005C24.9786 11.6927 25.0337 11.6737 25.0834 11.6445L26.9778 10.5508C27.0775 10.4923 27.15 10.3968 27.1795 10.2852C27.209 10.1735 27.1932 10.0546 27.1354 9.95457C27.0777 9.85452 26.9827 9.78138 26.8712 9.75111C26.7597 9.72084 26.6407 9.7359 26.5403 9.793ZM26.9778 14.3868L25.0834 13.293C25.0337 13.2638 24.9786 13.2448 24.9214 13.237C24.8643 13.2291 24.8061 13.2327 24.7503 13.2475C24.6946 13.2622 24.6422 13.2878 24.5964 13.3229C24.5506 13.3579 24.5121 13.4017 24.4833 13.4517C24.4544 13.5016 24.4357 13.5568 24.4283 13.614C24.4209 13.6713 24.4248 13.7294 24.4399 13.7851C24.4551 13.8407 24.481 13.8929 24.5164 13.9385C24.5517 13.9841 24.5958 14.0222 24.6459 14.0508L26.5403 15.1445C26.6407 15.2016 26.7597 15.2167 26.8712 15.1864C26.9827 15.1561 27.0777 15.083 27.1354 14.9829C27.1932 14.8829 27.209 14.764 27.1795 14.6523C27.15 14.5407 27.0775 14.4452 26.9778 14.3868ZM1.45843 15.1445L3.3528 14.0508C3.40296 14.0222 3.44698 13.9841 3.48233 13.9385C3.51768 13.8929 3.54366 13.8407 3.55878 13.7851C3.5739 13.7294 3.57785 13.6713 3.57041 13.614C3.56298 13.5568 3.5443 13.5016 3.51545 13.4517C3.4866 13.4017 3.44815 13.3579 3.40232 13.3229C3.35648 13.2878 3.30417 13.2622 3.24839 13.2475C3.19261 13.2327 3.13446 13.2291 3.0773 13.237C3.02013 13.2448 2.96508 13.2638 2.9153 13.293L1.02093 14.3868C0.92126 14.4452 0.848751 14.5407 0.819221 14.6523C0.789692 14.764 0.805539 14.8829 0.863305 14.9829C0.921071 15.083 1.01607 15.1561 1.12756 15.1864C1.23905 15.2167 1.35799 15.2016 1.45843 15.1445ZM1.02093 10.5508L2.9153 11.6445C2.96508 11.6737 3.02013 11.6927 3.0773 11.7005C3.13446 11.7084 3.19261 11.7048 3.24839 11.69C3.30417 11.6753 3.35648 11.6497 3.40232 11.6146C3.44815 11.5796 3.4866 11.5358 3.51545 11.4858C3.5443 11.4359 3.56298 11.3807 3.57041 11.3235C3.57785 11.2663 3.5739 11.2081 3.55878 11.1524C3.54366 11.0968 3.51768 11.0446 3.48233 10.999C3.44698 10.9534 3.40296 10.9153 3.3528 10.8868L1.45843 9.793C1.35799 9.7359 1.23905 9.72084 1.12756 9.75111C1.01607 9.78138 0.921071 9.85452 0.863305 9.95457C0.805539 10.0546 0.789692 10.1735 0.819221 10.2852C0.848751 10.3968 0.92126 10.4923 1.02093 10.5508Z" fill="#1E120B"/>
<path d="M14 14.4375C14.2416 14.4375 14.4375 14.2416 14.4375 14C14.4375 13.7584 14.2416 13.5625 14 13.5625C13.7584 13.5625 13.5625 13.7584 13.5625 14C13.5625 14.2416 13.7584 14.4375 14 14.4375Z" fill="#1E120B"/>
</g>
<defs>
<clipPath id="clip0_743_4162">
<rect width="28" height="28" fill="white"/>
</clipPath>
</defs>
</svg>
