<svg width="14" height="21" viewBox="0 0 14 21" fill="none" xmlns="http://www.w3.org/2000/svg">
<path d="M6.99941 20.0833C5.6218 20.0832 4.276 19.6692 3.13649 18.8951C1.99699 18.1209 1.11634 17.0222 0.608732 15.7416C0.101123 14.4609 -0.0100339 13.0572 0.289674 11.7126C0.589382 10.368 1.28613 9.14445 2.28958 8.20058C3.51975 7.04283 6.54108 4.95833 6.08275 0.375C11.5827 4.04167 14.3327 7.70833 8.83275 13.2083C9.74941 13.2083 11.1244 13.2083 13.4161 10.9442C13.6636 11.6527 13.8744 12.4145 13.8744 13.2083C13.8744 15.0317 13.1501 16.7804 11.8608 18.0697C10.5715 19.359 8.82278 20.0833 6.99941 20.0833Z" fill="#1DB954"/>
</svg>
