<svg width="26" height="27" viewBox="0 0 26 27" fill="none" xmlns="http://www.w3.org/2000/svg">
<path fill-rule="evenodd" clip-rule="evenodd" d="M11.5671 1.11548C11.9586 0.757947 12.4697 0.559692 13 0.559692C13.5303 0.559692 14.0414 0.757947 14.4329 1.11548C14.4334 1.11593 14.4339 1.11638 14.4344 1.11683L25.0568 10.7699C25.0618 10.7745 25.0668 10.7791 25.0717 10.7838C25.2817 10.9821 25.4499 11.2204 25.5663 11.4847C25.6828 11.7489 25.7452 12.0339 25.7499 12.3226C25.7499 12.3264 25.75 12.3302 25.75 12.334C25.75 12.336 25.75 12.3379 25.75 12.3398V24.625C25.75 25.1886 25.5261 25.7291 25.1276 26.1276C24.7291 26.5261 24.1886 26.75 23.625 26.75H17.25C16.6864 26.75 16.1459 26.5261 15.7474 26.1276C15.3489 25.7291 15.125 25.1886 15.125 24.625V18.25H10.875V24.625C10.875 25.1886 10.6511 25.7291 10.2526 26.1276C9.85408 26.5261 9.31358 26.75 8.75 26.75H2.375C1.81142 26.75 1.27091 26.5261 0.872398 26.1276C0.473883 25.7291 0.25 25.1886 0.25 24.625V12.3398C0.25 12.3341 0.250046 12.3284 0.250139 12.3226C0.254811 12.0339 0.317216 11.7489 0.433681 11.4847C0.550145 11.2204 0.718313 10.9821 0.928283 10.7838C0.933225 10.7791 0.938213 10.7745 0.943244 10.7699L11.5656 1.11683C11.5661 1.11638 11.5666 1.11593 11.5671 1.11548ZM2.38507 12.331L12.9974 2.68708L13 2.68469L13.0026 2.68708L23.6149 12.331C23.6178 12.3342 23.6201 12.3377 23.6218 12.3416C23.6235 12.3456 23.6246 12.3499 23.625 12.3543V24.625H17.25V18.25C17.25 17.6864 17.0261 17.1459 16.6276 16.7474C16.2291 16.3489 15.6886 16.125 15.125 16.125H10.875C10.3114 16.125 9.77091 16.3489 9.3724 16.7474C8.97388 17.1459 8.75 17.6864 8.75 18.25V24.625H2.375V12.3543C2.37537 12.3499 2.37647 12.3456 2.37824 12.3416C2.37994 12.3377 2.38225 12.3342 2.38507 12.331Z" fill="#1DB954"/>
</svg>
