<svg width="24" height="24" viewBox="0 0 24 24" fill="none" xmlns="http://www.w3.org/2000/svg">
<path d="M16.1084 12.0149C18.3796 12.0149 20.2208 10.1737 20.2208 7.90253C20.2208 5.63134 18.3796 3.79018 16.1084 3.79018C13.8373 3.79018 11.9961 5.63134 11.9961 7.90253C11.9961 10.1737 13.8373 12.0149 16.1084 12.0149Z" fill="#C3E2CE" fill-opacity="0.12"/>
<path d="M16.1094 12.0151C18.3806 12.0151 20.2217 10.1739 20.2217 7.90272C20.2217 6.14581 19.12 4.64624 17.5697 4.0572" stroke="#1ED760" stroke-width="1.71429" stroke-linecap="round" stroke-linejoin="round"/>
<path d="M21.7258 17.7919C23.7373 19.1316 22.3791 21.7155 19.9621 21.7155H10.8861C8.4692 21.7155 7.11089 19.1316 9.12245 17.7919C10.9268 16.5902 13.0937 15.8898 15.4241 15.8898C17.7546 15.8898 19.9215 16.5902 21.7258 17.7919Z" fill="#C3E2CE" fill-opacity="0.12"/>
<path d="M9.19018 11.1998C11.6521 11.1998 13.6479 9.20401 13.6479 6.74208C13.6479 4.28012 11.6521 2.28432 9.19018 2.28432C6.72823 2.28432 4.73242 4.28012 4.73242 6.74208C4.73242 9.20401 6.72823 11.1998 9.19018 11.1998Z" fill="#C3E2CE" fill-opacity="0.12" stroke="#1ED760" stroke-width="1.71429" stroke-linecap="round" stroke-linejoin="round"/>
<path d="M16.0166 17.4627C18.1971 18.9151 16.7247 21.7161 14.1048 21.7161H4.2664C1.64653 21.7161 0.174138 18.9151 2.35464 17.4627C4.31052 16.1601 6.6594 15.401 9.18561 15.401C11.7118 15.401 14.0607 16.1601 16.0166 17.4627Z" fill="#C3E2CE" fill-opacity="0.12" stroke="#1ED760" stroke-width="1.71429"/>
<path d="M13.7266 21.7159H19.9623C22.3793 21.7159 23.7375 19.1319 21.726 17.7921C21.1706 17.4221 20.5807 17.0997 19.9623 16.8306" stroke="#1ED760" stroke-width="1.71429" stroke-linecap="round"/>
</svg>
