<svg width="32" height="32" viewBox="0 0 32 32" fill="none" xmlns="http://www.w3.org/2000/svg">
<path d="M6.6582 29.8683C9.27724 29.8683 11.4004 27.7451 11.4004 25.1262C11.4004 22.5072 9.27724 20.384 6.6582 20.384C4.03916 20.384 1.91602 22.5072 1.91602 25.1262C1.91602 27.7451 4.03916 29.8683 6.6582 29.8683Z" fill="#1ED760" fill-opacity="0.13" stroke="#1DB954" stroke-width="1.71429" stroke-linecap="round" stroke-linejoin="round"/>
<path d="M25.3071 27.44C27.8767 27.44 29.9599 25.357 29.9599 22.7873C29.9599 20.2177 27.8767 18.1346 25.3071 18.1346C22.7374 18.1346 20.6543 20.2177 20.6543 22.7873C20.6543 25.357 22.7374 27.44 25.3071 27.44Z" fill="#1ED760" fill-opacity="0.13" stroke="#1DB954" stroke-width="1.71429" stroke-linecap="round" stroke-linejoin="round"/>
<path d="M11.377 14.8259V25.1262" stroke="#1DB954" stroke-width="1.71429" stroke-linecap="round" stroke-linejoin="round"/>
<path d="M11.377 14.8247V10.3239C11.377 8.25254 12.7681 6.43386 14.7749 5.92079C16.0445 5.59615 17.3329 5.27844 18.6396 4.97725C21.5841 4.29857 24.4818 3.73608 27.2799 3.19286C28.7759 2.90246 29.9602 3.93677 29.9602 5.4607V10.5238C29.6504 10.6065 29.3394 10.6897 29.0271 10.7732C26.2735 11.5097 23.4219 12.2723 20.4775 12.951C17.533 13.6296 14.6354 14.1921 11.8373 14.7353C11.6835 14.7652 11.5301 14.795 11.377 14.8247Z" fill="#1ED760" fill-opacity="0.13" stroke="#1DB954" stroke-width="1.71429"/>
<path d="M29.959 22.8173V10.5414" stroke="#1DB954" stroke-width="1.71429" stroke-linecap="round" stroke-linejoin="round"/>
</svg>
