<svg width="24" height="24" viewBox="0 0 24 24" fill="none" xmlns="http://www.w3.org/2000/svg">
<path d="M12.0007 12.6116C14.0074 12.6116 15.6342 10.9848 15.6342 8.97809C15.6342 6.97137 14.0074 5.3446 12.0007 5.3446C9.99398 5.3446 8.36719 6.97137 8.36719 8.97809C8.36719 10.9848 9.99398 12.6116 12.0007 12.6116Z" fill="#C3E2CE" fill-opacity="0.12" stroke="#1ED760" stroke-width="1.71429" stroke-linecap="round" stroke-linejoin="round"/>
<path d="M17.9327 17.2522C17.6154 15.9732 16.8923 14.8283 15.8682 13.9914C14.7764 13.099 13.4097 12.6115 11.9996 12.6115C10.5894 12.6115 9.22268 13.099 8.13087 13.9914C7.10687 14.8283 6.38379 15.9732 6.06641 17.2522C6.37313 17.3546 6.69341 17.4259 7.02346 17.4627C8.64246 17.6433 10.3048 17.7982 11.9996 17.7982C13.6944 17.7982 15.3568 17.6433 16.9758 17.4627C17.3058 17.4259 17.626 17.3546 17.9327 17.2522Z" fill="#C3E2CE" fill-opacity="0.12" stroke="#1ED760" stroke-width="1.71429" stroke-linecap="round" stroke-linejoin="round"/>
<path d="M17.1543 1.61593C17.79 1.68441 18.42 1.75783 19.0438 1.83012C20.6886 2.02075 22.0011 3.33235 22.1859 4.97785C22.2555 5.59764 22.3256 6.22357 22.3908 6.85519" stroke="#1ED760" stroke-width="1.71429" stroke-linecap="round"/>
<path d="M17.1543 22.3841C17.79 22.3155 18.42 22.2422 19.0438 22.1698C20.6886 21.9792 22.0011 20.6676 22.1859 19.0221C22.2555 18.4023 22.3256 17.7765 22.3908 17.1447" stroke="#1ED760" stroke-width="1.71429" stroke-linecap="round"/>
<path d="M6.84592 1.61593C6.21018 1.68441 5.58016 1.75783 4.95635 1.83012C3.31151 2.02075 1.99907 3.33235 1.81432 4.97785C1.74474 5.59764 1.67459 6.22357 1.60938 6.85519" stroke="#1ED760" stroke-width="1.71429" stroke-linecap="round"/>
<path d="M6.84592 22.3841C6.21018 22.3155 5.58016 22.2422 4.95635 22.1698C3.31151 21.9792 1.99907 20.6676 1.81432 19.0221C1.74474 18.4023 1.67459 17.7765 1.60938 17.1447" stroke="#1ED760" stroke-width="1.71429" stroke-linecap="round"/>
</svg>
