<svg width="32" height="32" viewBox="0 0 32 32" fill="none" xmlns="http://www.w3.org/2000/svg">
<path fill-rule="evenodd" clip-rule="evenodd" d="M15.9998 20.9993C14.5225 20.9993 13.074 21.4084 11.8149 22.1812C10.5558 22.954 9.53528 24.0604 8.86649 25.3777C8.61648 25.8702 8.01459 26.0667 7.52213 25.8167C7.02968 25.5667 6.83314 24.9648 7.08316 24.4723C7.91914 22.8257 9.19477 21.4427 10.7686 20.4767C12.3425 19.5106 14.1531 18.9993 15.9998 18.9993C17.8465 18.9993 19.6572 19.5106 21.231 20.4767C22.8049 21.4427 24.0805 22.8257 24.9165 24.4723C25.1665 24.9648 24.97 25.5667 24.4775 25.8167C23.9851 26.0667 23.3832 25.8702 23.1332 25.3777C22.4644 24.0604 21.4439 22.954 20.1848 22.1812C18.9257 21.4084 17.4772 20.9993 15.9998 20.9993Z" fill="#D8D8D8"/>
<path fill-rule="evenodd" clip-rule="evenodd" d="M16 5C9.92487 5 5 9.92487 5 16C5 22.0751 9.92487 27 16 27C22.0751 27 27 22.0751 27 16C27 9.92487 22.0751 5 16 5ZM3 16C3 8.8203 8.8203 3 16 3C23.1797 3 29 8.8203 29 16C29 23.1797 23.1797 29 16 29C8.8203 29 3 23.1797 3 16Z" fill="#D8D8D8"/>
<path fill-rule="evenodd" clip-rule="evenodd" d="M16 11C13.7909 11 12 12.7909 12 15C12 17.2091 13.7909 19 16 19C18.2091 19 20 17.2091 20 15C20 12.7909 18.2091 11 16 11ZM10 15C10 11.6863 12.6863 9 16 9C19.3137 9 22 11.6863 22 15C22 18.3137 19.3137 21 16 21C12.6863 21 10 18.3137 10 15Z" fill="#D8D8D8"/>
</svg>
