<svg width="24" height="24" viewBox="0 0 24 24" fill="none" xmlns="http://www.w3.org/2000/svg">
<path d="M7.05005 19.4102H6V9.60202L11.1755 2.2356C11.5939 1.64013 12.276 1.28571 13.0038 1.28571C14.3609 1.28571 15.4046 2.48561 15.2166 3.82963L14.8266 6.61836H18.2388C19.7306 6.61836 22.7143 8.11018 22.7143 11.0938C22.7143 14.0775 19.7143 20.9019 16.5409 20.9019C12.3637 20.9019 8.79053 19.9075 7.05005 19.4102Z" fill="#C3E2CE" fill-opacity="0.12" stroke="#1ED760" stroke-width="1.71429" stroke-linecap="round" stroke-linejoin="round"/>
<path d="M1.28516 9.21429C1.28516 7.91248 2.34049 6.85715 3.6423 6.85715C4.94411 6.85715 5.99944 7.91248 5.99944 9.21429V19.0714C5.99944 20.3733 4.94411 21.4286 3.6423 21.4286C2.34049 21.4286 1.28516 20.3733 1.28516 19.0714V9.21429Z" fill="#C3E2CE" fill-opacity="0.12" stroke="#1ED760" stroke-width="1.71429" stroke-linejoin="round"/>
</svg>
