<svg width="18" height="18" viewBox="0 0 18 18" fill="none" xmlns="http://www.w3.org/2000/svg">
<path d="M14.0257 12.3475L17.5948 15.9158L16.4157 17.095L12.8473 13.5258C11.5196 14.5902 9.86817 15.1691 8.1665 15.1667C4.0265 15.1667 0.666504 11.8067 0.666504 7.66666C0.666504 3.52666 4.0265 0.166656 8.1665 0.166656C12.3065 0.166656 15.6665 3.52666 15.6665 7.66666C15.6689 9.36832 15.09 11.0198 14.0257 12.3475ZM12.354 11.7292C13.4116 10.6416 14.0022 9.18368 13.9998 7.66666C13.9998 4.44332 11.389 1.83332 8.1665 1.83332C4.94317 1.83332 2.33317 4.44332 2.33317 7.66666C2.33317 10.8892 4.94317 13.5 8.1665 13.5C9.68353 13.5024 11.1414 12.9118 12.229 11.8542L12.354 11.7292Z" fill="#969696"/>
</svg>
